<?xml version="1.0" standalone="no"?><svg xmlns="http://www.w3.org/2000/svg" viewBox="0 0 1440 320"><path fill="#ff8a00" fill-opacity="1" d="M0,160L26.7,154.7C53.3,149,107,139,160,160C213.3,181,267,235,320,261.3C373.3,288,427,288,480,256C533.3,224,587,160,640,154.7C693.3,149,747,203,800,197.3C853.3,192,907,128,960,90.7C1013.3,53,1067,43,1120,53.3C1173.3,64,1227,96,1280,90.7C1333.3,85,1387,43,1413,21.3L1440,0L1440,320L1413.3,320C1386.7,320,1333,320,1280,320C1226.7,320,1173,320,1120,320C1066.7,320,1013,320,960,320C906.7,320,853,320,800,320C746.7,320,693,320,640,320C586.7,320,533,320,480,320C426.7,320,373,320,320,320C266.7,320,213,320,160,320C106.7,320,53,320,27,320L0,320Z"></path></svg>